
    <svg id="tree" width="1000" height="600" title="test2" version="1.1" xmlns="http://www.w3.org/2000/svg">
        <style>
            .node circle {
   fill: #fff;
   stroke: steelblue;
   stroke-width: 3px;
 }

 .node text { font: 12px sans-serif; }

 .link {
   fill: none;
   stroke: #ccc;
   stroke-width: 2px;
 }

circle:hover {
    transform: scale(1.1, 1.1);
}

circle.match {
    stroke: orange;
}

circle.match[data-goal-path="true"] {
    fill: orange;
}

circle.predict[data-goal-path="true"] {
    fill: steelblue;
}
        </style>

    <g transform="translate(90,40)"><path class="link" d="M390.16129032258067,39.23076923076923C390.16129032258067,19.615384615384617 416.61290322580646,19.615384615384617 416.61290322580646,0"></path><path class="link" d="M443.06451612903226,39.23076923076923C443.06451612903226,19.615384615384617 416.61290322580646,19.615384615384617 416.61290322580646,0"></path><path class="link" d="M443.06451612903226,78.46153846153847C443.06451612903226,58.846153846153854 443.06451612903226,58.846153846153854 443.06451612903226,39.23076923076923"></path><path class="link" d="M390.16129032258067,117.69230769230771C390.16129032258067,98.0769230769231 443.06451612903226,98.0769230769231 443.06451612903226,78.46153846153847"></path><path class="link" d="M443.06451612903226,117.69230769230771C443.06451612903226,98.0769230769231 443.06451612903226,98.0769230769231 443.06451612903226,78.46153846153847"></path><path class="link" d="M495.9677419354839,117.69230769230771C495.9677419354839,98.0769230769231 443.06451612903226,98.0769230769231 443.06451612903226,78.46153846153847"></path><path class="link" d="M495.9677419354839,156.92307692307693C495.9677419354839,137.30769230769232 495.9677419354839,137.30769230769232 495.9677419354839,117.69230769230771"></path><path class="link" d="M251.29032258064518,196.15384615384616C251.29032258064518,176.53846153846155 495.9677419354839,176.53846153846155 495.9677419354839,156.92307692307693"></path><path class="link" d="M687.741935483871,196.15384615384616C687.741935483871,176.53846153846155 495.9677419354839,176.53846153846155 495.9677419354839,156.92307692307693"></path><path class="link" d="M740.6451612903227,196.15384615384616C740.6451612903227,176.53846153846155 495.9677419354839,176.53846153846155 495.9677419354839,156.92307692307693"></path><path class="link" d="M251.29032258064518,235.38461538461542C251.29032258064518,215.76923076923077 251.29032258064518,215.76923076923077 251.29032258064518,196.15384615384616"></path><path class="link" d="M687.741935483871,235.38461538461542C687.741935483871,215.76923076923077 687.741935483871,215.76923076923077 687.741935483871,196.15384615384616"></path><path class="link" d="M224.83870967741936,274.61538461538464C224.83870967741936,255.00000000000003 251.29032258064518,255.00000000000003 251.29032258064518,235.38461538461542"></path><path class="link" d="M277.741935483871,274.61538461538464C277.741935483871,255.00000000000003 251.29032258064518,255.00000000000003 251.29032258064518,235.38461538461542"></path><path class="link" d="M608.3870967741935,274.61538461538464C608.3870967741935,255.00000000000003 687.741935483871,255.00000000000003 687.741935483871,235.38461538461542"></path><path class="link" d="M714.1935483870968,274.61538461538464C714.1935483870968,255.00000000000003 687.741935483871,255.00000000000003 687.741935483871,235.38461538461542"></path><path class="link" d="M767.0967741935484,274.61538461538464C767.0967741935484,255.00000000000003 687.741935483871,255.00000000000003 687.741935483871,235.38461538461542"></path><path class="link" d="M224.83870967741936,313.84615384615387C224.83870967741936,294.2307692307693 224.83870967741936,294.2307692307693 224.83870967741936,274.61538461538464"></path><path class="link" d="M608.3870967741935,313.84615384615387C608.3870967741935,294.2307692307693 608.3870967741935,294.2307692307693 608.3870967741935,274.61538461538464"></path><path class="link" d="M714.1935483870968,313.84615384615387C714.1935483870968,294.2307692307693 714.1935483870968,294.2307692307693 714.1935483870968,274.61538461538464"></path><path class="link" d="M79.35483870967742,353.0769230769231C79.35483870967742,333.46153846153845 224.83870967741936,333.46153846153845 224.83870967741936,313.84615384615387"></path><path class="link" d="M132.25806451612902,353.0769230769231C132.25806451612902,333.46153846153845 224.83870967741936,333.46153846153845 224.83870967741936,313.84615384615387"></path><path class="link" d="M370.32258064516134,353.0769230769231C370.32258064516134,333.46153846153845 224.83870967741936,333.46153846153845 224.83870967741936,313.84615384615387"></path><path class="link" d="M581.9354838709678,353.0769230769231C581.9354838709678,333.46153846153845 608.3870967741935,333.46153846153845 608.3870967741935,313.84615384615387"></path><path class="link" d="M634.8387096774194,353.0769230769231C634.8387096774194,333.46153846153845 608.3870967741935,333.46153846153845 608.3870967741935,313.84615384615387"></path><path class="link" d="M132.25806451612902,392.3076923076923C132.25806451612902,372.69230769230774 132.25806451612902,372.69230769230774 132.25806451612902,353.0769230769231"></path><path class="link" d="M370.32258064516134,392.3076923076923C370.32258064516134,372.69230769230774 370.32258064516134,372.69230769230774 370.32258064516134,353.0769230769231"></path><path class="link" d="M634.8387096774194,392.3076923076923C634.8387096774194,372.69230769230774 634.8387096774194,372.69230769230774 634.8387096774194,353.0769230769231"></path><path class="link" d="M105.80645161290323,431.53846153846155C105.80645161290323,411.9230769230769 132.25806451612902,411.9230769230769 132.25806451612902,392.3076923076923"></path><path class="link" d="M158.70967741935485,431.53846153846155C158.70967741935485,411.9230769230769 132.25806451612902,411.9230769230769 132.25806451612902,392.3076923076923"></path><path class="link" d="M290.9677419354839,431.53846153846155C290.9677419354839,411.9230769230769 370.32258064516134,411.9230769230769 370.32258064516134,392.3076923076923"></path><path class="link" d="M396.77419354838713,431.53846153846155C396.77419354838713,411.9230769230769 370.32258064516134,411.9230769230769 370.32258064516134,392.3076923076923"></path><path class="link" d="M449.6774193548387,431.53846153846155C449.6774193548387,411.9230769230769 370.32258064516134,411.9230769230769 370.32258064516134,392.3076923076923"></path><path class="link" d="M555.483870967742,431.53846153846155C555.483870967742,411.9230769230769 634.8387096774194,411.9230769230769 634.8387096774194,392.3076923076923"></path><path class="link" d="M661.2903225806452,431.53846153846155C661.2903225806452,411.9230769230769 634.8387096774194,411.9230769230769 634.8387096774194,392.3076923076923"></path><path class="link" d="M714.1935483870968,431.53846153846155C714.1935483870968,411.9230769230769 634.8387096774194,411.9230769230769 634.8387096774194,392.3076923076923"></path><path class="link" d="M105.80645161290323,470.76923076923083C105.80645161290323,451.1538461538462 105.80645161290323,451.1538461538462 105.80645161290323,431.53846153846155"></path><path class="link" d="M290.9677419354839,470.76923076923083C290.9677419354839,451.1538461538462 290.9677419354839,451.1538461538462 290.9677419354839,431.53846153846155"></path><path class="link" d="M396.77419354838713,470.76923076923083C396.77419354838713,451.1538461538462 396.77419354838713,451.1538461538462 396.77419354838713,431.53846153846155"></path><path class="link" d="M555.483870967742,470.76923076923083C555.483870967742,451.1538461538462 555.483870967742,451.1538461538462 555.483870967742,431.53846153846155"></path><path class="link" d="M661.2903225806452,470.76923076923083C661.2903225806452,451.1538461538462 661.2903225806452,451.1538461538462 661.2903225806452,431.53846153846155"></path><path class="link" d="M52.903225806451616,510.00000000000006C52.903225806451616,490.3846153846155 105.80645161290323,490.3846153846155 105.80645161290323,470.76923076923083"></path><path class="link" d="M105.80645161290323,510.00000000000006C105.80645161290323,490.3846153846155 105.80645161290323,490.3846153846155 105.80645161290323,470.76923076923083"></path><path class="link" d="M158.70967741935485,510.00000000000006C158.70967741935485,490.3846153846155 105.80645161290323,490.3846153846155 105.80645161290323,470.76923076923083"></path><path class="link" d="M264.51612903225805,510.00000000000006C264.51612903225805,490.3846153846155 290.9677419354839,490.3846153846155 290.9677419354839,470.76923076923083"></path><path class="link" d="M317.4193548387097,510.00000000000006C317.4193548387097,490.3846153846155 290.9677419354839,490.3846153846155 290.9677419354839,470.76923076923083"></path><path class="link" d="M529.0322580645161,510.00000000000006C529.0322580645161,490.3846153846155 555.483870967742,490.3846153846155 555.483870967742,470.76923076923083"></path><path class="link" d="M581.9354838709678,510.00000000000006C581.9354838709678,490.3846153846155 555.483870967742,490.3846153846155 555.483870967742,470.76923076923083"></path><g class="node node--internal" transform="translate(416.61290322580646,0)"><circle class="predict" data-goal="false" data-goal-path="true" r="10"></circle><title>0: predict S' -&gt; S</title><text dy=".35em" y="-20" style="text-anchor: middle;">1:S</text></g><g class="node node--leaf" transform="translate(390.16129032258067,39.23076923076923)"><circle class="predict" data-goal="false" data-goal-path="false" r="10"></circle><title>0: predict S -&gt; b A</title><text dy=".35em" y="20" style="text-anchor: middle;">2:bA</text></g><g class="node node--internal" transform="translate(443.06451612903226,39.23076923076923)"><circle class="predict" data-goal="false" data-goal-path="true" r="10"></circle><title>0: predict S -&gt; a B</title><text dy=".35em" y="-20" style="text-anchor: middle;">3:aB</text></g><g class="node node--internal" transform="translate(443.06451612903226,78.46153846153847)"><circle class="match" data-goal="false" data-goal-path="true" r="10"></circle><title>1: match a</title><text dy=".35em" y="-20" style="text-anchor: middle;">4:B</text></g><g class="node node--leaf" transform="translate(390.16129032258067,117.69230769230771)"><circle class="predict" data-goal="false" data-goal-path="false" r="10"></circle><title>1: predict B -&gt; b S</title><text dy=".35em" y="20" style="text-anchor: middle;">5:bS</text></g><g class="node node--leaf" transform="translate(443.06451612903226,117.69230769230771)"><circle class="predict" data-goal="false" data-goal-path="false" r="10"></circle><title>1: predict B -&gt; b</title><text dy=".35em" y="20" style="text-anchor: middle;">6:b</text></g><g class="node node--internal" transform="translate(495.9677419354839,117.69230769230771)"><circle class="predict" data-goal="false" data-goal-path="true" r="10"></circle><title>1: predict B -&gt; a B B</title><text dy=".35em" y="-20" style="text-anchor: middle;">7:aBB</text></g><g class="node node--internal" transform="translate(495.9677419354839,156.92307692307693)"><circle class="match" data-goal="false" data-goal-path="true" r="10"></circle><title>2: match a</title><text dy=".35em" y="-20" style="text-anchor: middle;">8:BB</text></g><g class="node node--internal" transform="translate(251.29032258064518,196.15384615384616)"><circle class="predict" data-goal="false" data-goal-path="true" r="10"></circle><title>2: predict B -&gt; b S</title><text dy=".35em" y="-20" style="text-anchor: middle;">9:bSB</text></g><g class="node node--internal" transform="translate(687.741935483871,196.15384615384616)"><circle class="predict" data-goal="false" data-goal-path="true" r="10"></circle><title>2: predict B -&gt; b</title><text dy=".35em" y="-20" style="text-anchor: middle;">32:bB</text></g><g class="node node--leaf" transform="translate(740.6451612903227,196.15384615384616)"><circle class="predict" data-goal="false" data-goal-path="false" r="10"></circle><title>2: predict B -&gt; a B B</title><text dy=".35em" y="20" style="text-anchor: middle;">49:aBBB</text></g><g class="node node--internal" transform="translate(251.29032258064518,235.38461538461542)"><circle class="match" data-goal="false" data-goal-path="true" r="10"></circle><title>3: match b</title><text dy=".35em" y="-20" style="text-anchor: middle;">10:SB</text></g><g class="node node--internal" transform="translate(687.741935483871,235.38461538461542)"><circle class="match" data-goal="false" data-goal-path="true" r="10"></circle><title>3: match b</title><text dy=".35em" y="-20" style="text-anchor: middle;">33:B</text></g><g class="node node--internal" transform="translate(224.83870967741936,274.61538461538464)"><circle class="predict" data-goal="false" data-goal-path="true" r="10"></circle><title>3: predict S -&gt; b A</title><text dy=".35em" y="-20" style="text-anchor: middle;">11:bAB</text></g><g class="node node--leaf" transform="translate(277.741935483871,274.61538461538464)"><circle class="predict" data-goal="false" data-goal-path="false" r="10"></circle><title>3: predict S -&gt; a B</title><text dy=".35em" y="20" style="text-anchor: middle;">31:aBB</text></g><g class="node node--internal" transform="translate(608.3870967741935,274.61538461538464)"><circle class="predict" data-goal="false" data-goal-path="true" r="10"></circle><title>3: predict B -&gt; b S</title><text dy=".35em" y="-20" style="text-anchor: middle;">34:bS</text></g><g class="node node--internal" transform="translate(714.1935483870968,274.61538461538464)"><circle class="predict" data-goal="false" data-goal-path="false" r="10"></circle><title>3: predict B -&gt; b</title><text dy=".35em" y="-20" style="text-anchor: middle;">46:b</text></g><g class="node node--leaf" transform="translate(767.0967741935484,274.61538461538464)"><circle class="predict" data-goal="false" data-goal-path="false" r="10"></circle><title>3: predict B -&gt; a B B</title><text dy=".35em" y="20" style="text-anchor: middle;">48:aBB</text></g><g class="node node--internal" transform="translate(224.83870967741936,313.84615384615387)"><circle class="match" data-goal="false" data-goal-path="true" r="10"></circle><title>4: match b</title><text dy=".35em" y="-20" style="text-anchor: middle;">12:AB</text></g><g class="node node--internal" transform="translate(608.3870967741935,313.84615384615387)"><circle class="match" data-goal="false" data-goal-path="true" r="10"></circle><title>4: match b</title><text dy=".35em" y="-20" style="text-anchor: middle;">35:S</text></g><g class="node node--leaf" transform="translate(714.1935483870968,313.84615384615387)"><circle class="match" data-goal="false" data-goal-path="false" r="10"></circle><title>4: match b</title><text dy=".35em" y="20" style="text-anchor: middle;">47</text></g><g class="node node--leaf" transform="translate(79.35483870967742,353.0769230769231)"><circle class="predict" data-goal="false" data-goal-path="false" r="10"></circle><title>4: predict A -&gt; b A A</title><text dy=".35em" y="20" style="text-anchor: middle;">13:bAAB</text></g><g class="node node--internal" transform="translate(132.25806451612902,353.0769230769231)"><circle class="predict" data-goal="false" data-goal-path="false" r="10"></circle><title>4: predict A -&gt; a S</title><text dy=".35em" y="-20" style="text-anchor: middle;">14:aSB</text></g><g class="node node--internal" transform="translate(370.32258064516134,353.0769230769231)"><circle class="predict" data-goal="false" data-goal-path="true" r="10"></circle><title>4: predict A -&gt; a</title><text dy=".35em" y="-20" style="text-anchor: middle;">22:aB</text></g><g class="node node--leaf" transform="translate(581.9354838709678,353.0769230769231)"><circle class="predict" data-goal="false" data-goal-path="false" r="10"></circle><title>4: predict S -&gt; b A</title><text dy=".35em" y="20" style="text-anchor: middle;">36:bA</text></g><g class="node node--internal" transform="translate(634.8387096774194,353.0769230769231)"><circle class="predict" data-goal="false" data-goal-path="true" r="10"></circle><title>4: predict S -&gt; a B</title><text dy=".35em" y="-20" style="text-anchor: middle;">37:aB</text></g><g class="node node--internal" transform="translate(132.25806451612902,392.3076923076923)"><circle class="match" data-goal="false" data-goal-path="false" r="10"></circle><title>5: match a</title><text dy=".35em" y="-20" style="text-anchor: middle;">15:SB</text></g><g class="node node--internal" transform="translate(370.32258064516134,392.3076923076923)"><circle class="match" data-goal="false" data-goal-path="true" r="10"></circle><title>5: match a</title><text dy=".35em" y="-20" style="text-anchor: middle;">23:B</text></g><g class="node node--internal" transform="translate(634.8387096774194,392.3076923076923)"><circle class="match" data-goal="false" data-goal-path="true" r="10"></circle><title>5: match a</title><text dy=".35em" y="-20" style="text-anchor: middle;">38:B</text></g><g class="node node--internal" transform="translate(105.80645161290323,431.53846153846155)"><circle class="predict" data-goal="false" data-goal-path="false" r="10"></circle><title>5: predict S -&gt; b A</title><text dy=".35em" y="-20" style="text-anchor: middle;">16:bAB</text></g><g class="node node--leaf" transform="translate(158.70967741935485,431.53846153846155)"><circle class="predict" data-goal="false" data-goal-path="false" r="10"></circle><title>5: predict S -&gt; a B</title><text dy=".35em" y="20" style="text-anchor: middle;">21:aBB</text></g><g class="node node--internal" transform="translate(290.9677419354839,431.53846153846155)"><circle class="predict" data-goal="false" data-goal-path="false" r="10"></circle><title>5: predict B -&gt; b S</title><text dy=".35em" y="-20" style="text-anchor: middle;">24:bS</text></g><g class="node node--internal" transform="translate(396.77419354838713,431.53846153846155)"><circle class="predict" data-goal="false" data-goal-path="true" r="10"></circle><title>5: predict B -&gt; b</title><text dy=".35em" y="-20" style="text-anchor: middle;">28:b</text></g><g class="node node--leaf" transform="translate(449.6774193548387,431.53846153846155)"><circle class="predict" data-goal="false" data-goal-path="false" r="10"></circle><title>5: predict B -&gt; a B B</title><text dy=".35em" y="20" style="text-anchor: middle;">30:aBB</text></g><g class="node node--internal" transform="translate(555.483870967742,431.53846153846155)"><circle class="predict" data-goal="false" data-goal-path="false" r="10"></circle><title>5: predict B -&gt; b S</title><text dy=".35em" y="-20" style="text-anchor: middle;">39:bS</text></g><g class="node node--internal" transform="translate(661.2903225806452,431.53846153846155)"><circle class="predict" data-goal="false" data-goal-path="true" r="10"></circle><title>5: predict B -&gt; b</title><text dy=".35em" y="-20" style="text-anchor: middle;">43:b</text></g><g class="node node--leaf" transform="translate(714.1935483870968,431.53846153846155)"><circle class="predict" data-goal="false" data-goal-path="false" r="10"></circle><title>5: predict B -&gt; a B B</title><text dy=".35em" y="20" style="text-anchor: middle;">45:aBB</text></g><g class="node node--internal" transform="translate(105.80645161290323,470.76923076923083)"><circle class="match" data-goal="false" data-goal-path="false" r="10"></circle><title>6: match b</title><text dy=".35em" y="-20" style="text-anchor: middle;">17:AB</text></g><g class="node node--internal" transform="translate(290.9677419354839,470.76923076923083)"><circle class="match" data-goal="false" data-goal-path="false" r="10"></circle><title>6: match b</title><text dy=".35em" y="-20" style="text-anchor: middle;">25:S</text></g><g class="node node--leaf" transform="translate(396.77419354838713,470.76923076923083)"><circle class="match" data-goal="true" data-goal-path="true" r="10"></circle><title>6: match b</title><text dy=".35em" y="20" style="text-anchor: middle;">29</text></g><g class="node node--internal" transform="translate(555.483870967742,470.76923076923083)"><circle class="match" data-goal="false" data-goal-path="false" r="10"></circle><title>6: match b</title><text dy=".35em" y="-20" style="text-anchor: middle;">40:S</text></g><g class="node node--leaf" transform="translate(661.2903225806452,470.76923076923083)"><circle class="match" data-goal="true" data-goal-path="true" r="10"></circle><title>6: match b</title><text dy=".35em" y="20" style="text-anchor: middle;">44</text></g><g class="node node--leaf" transform="translate(52.903225806451616,510.00000000000006)"><circle class="predict" data-goal="false" data-goal-path="false" r="10"></circle><title>6: predict A -&gt; b A A</title><text dy=".35em" y="20" style="text-anchor: middle;">18:bAAB</text></g><g class="node node--leaf" transform="translate(105.80645161290323,510.00000000000006)"><circle class="predict" data-goal="false" data-goal-path="false" r="10"></circle><title>6: predict A -&gt; a S</title><text dy=".35em" y="20" style="text-anchor: middle;">19:aSB</text></g><g class="node node--leaf" transform="translate(158.70967741935485,510.00000000000006)"><circle class="predict" data-goal="false" data-goal-path="false" r="10"></circle><title>6: predict A -&gt; a</title><text dy=".35em" y="20" style="text-anchor: middle;">20:aB</text></g><g class="node node--leaf" transform="translate(264.51612903225805,510.00000000000006)"><circle class="predict" data-goal="false" data-goal-path="false" r="10"></circle><title>6: predict S -&gt; b A</title><text dy=".35em" y="20" style="text-anchor: middle;">26:bA</text></g><g class="node node--leaf" transform="translate(317.4193548387097,510.00000000000006)"><circle class="predict" data-goal="false" data-goal-path="false" r="10"></circle><title>6: predict S -&gt; a B</title><text dy=".35em" y="20" style="text-anchor: middle;">27:aB</text></g><g class="node node--leaf" transform="translate(529.0322580645161,510.00000000000006)"><circle class="predict" data-goal="false" data-goal-path="false" r="10"></circle><title>6: predict S -&gt; b A</title><text dy=".35em" y="20" style="text-anchor: middle;">41:bA</text></g><g class="node node--leaf" transform="translate(581.9354838709678,510.00000000000006)"><circle class="predict" data-goal="false" data-goal-path="false" r="10"></circle><title>6: predict S -&gt; a B</title><text dy=".35em" y="20" style="text-anchor: middle;">42:aB</text></g></g></svg>
