
        <svg id="dag" width="1000" height="318" title="DAG" version="1.1" xmlns="http://www.w3.org/2000/svg">
            <style>
                text {
                    font-weight: 300;
                    font-family: "Helvetica Neue", Helvetica, Arial, sans-serf;
                    font-size: 12px;
                }

                .node rect {
                    stroke: #999;
                    fill: #fff;
                    stroke-width: 5px;
                    stroke: steelblue;
                }

                .edgePath path {
                    stroke: #333;
                    stroke-width: 1.5px;
                }

                .match-non-goal-path rect {
                    stroke: orange;
                }

                .match-goal-path rect {
                    fill: orange;
                    stroke: orange;
                }

                .predict-goal-path rect {
                    fill: steelblue;
                }
            </style>
        <g transform="translate(23.5, 20)"><g class="output"><g class="clusters"></g><g class="edgePaths"><g class="edgePath" style="opacity: 1;"><path class="path" d="M38,123.27586206896552L48,115L58,115" marker-end="url(file:///home/tobias/github/parsers/vis/top-down/dag.html#arrowhead94)" style="fill: none;"></path><defs><marker id="arrowhead94" viewBox="0 0 10 10" refX="9" refY="5" markerUnits="strokeWidth" markerWidth="8" markerHeight="6" orient="auto"><path d="M 0 0 L 10 5 L 0 10 L 4 5 z" style="stroke-width: 1; stroke-dasharray: 1, 0;"></path></marker></defs></g><g class="edgePath" style="opacity: 1;"><path class="path" d="M103,115L113,115L123,115" marker-end="url(file:///home/tobias/github/parsers/vis/top-down/dag.html#arrowhead95)" style="fill: none;"></path><defs><marker id="arrowhead95" viewBox="0 0 10 10" refX="9" refY="5" markerUnits="strokeWidth" markerWidth="8" markerHeight="6" orient="auto"><path d="M 0 0 L 10 5 L 0 10 L 4 5 z" style="stroke-width: 1; stroke-dasharray: 1, 0;"></path></marker></defs></g><g class="edgePath" style="opacity: 1;"><path class="path" d="M153.47916666666666,96L171,67L181,67" marker-end="url(file:///home/tobias/github/parsers/vis/top-down/dag.html#arrowhead96)" style="fill: none;"></path><defs><marker id="arrowhead96" viewBox="0 0 10 10" refX="9" refY="5" markerUnits="strokeWidth" markerWidth="8" markerHeight="6" orient="auto"><path d="M 0 0 L 10 5 L 0 10 L 4 5 z" style="stroke-width: 1; stroke-dasharray: 1, 0;"></path></marker></defs></g><g class="edgePath" style="opacity: 1;"><path class="path" d="M234,67L244,67L254,67" marker-end="url(file:///home/tobias/github/parsers/vis/top-down/dag.html#arrowhead97)" style="fill: none;"></path><defs><marker id="arrowhead97" viewBox="0 0 10 10" refX="9" refY="5" markerUnits="strokeWidth" markerWidth="8" markerHeight="6" orient="auto"><path d="M 0 0 L 10 5 L 0 10 L 4 5 z" style="stroke-width: 1; stroke-dasharray: 1, 0;"></path></marker></defs></g><g class="edgePath" style="opacity: 1;"><path class="path" d="M290.0625,48L310,19L320,19" marker-end="url(file:///home/tobias/github/parsers/vis/top-down/dag.html#arrowhead98)" style="fill: none;"></path><defs><marker id="arrowhead98" viewBox="0 0 10 10" refX="9" refY="5" markerUnits="strokeWidth" markerWidth="8" markerHeight="6" orient="auto"><path d="M 0 0 L 10 5 L 0 10 L 4 5 z" style="stroke-width: 1; stroke-dasharray: 1, 0;"></path></marker></defs></g><g class="edgePath" style="opacity: 1;"><path class="path" d="M300,67L310,67L328,67" marker-end="url(file:///home/tobias/github/parsers/vis/top-down/dag.html#arrowhead99)" style="fill: none;"></path><defs><marker id="arrowhead99" viewBox="0 0 10 10" refX="9" refY="5" markerUnits="strokeWidth" markerWidth="8" markerHeight="6" orient="auto"><path d="M 0 0 L 10 5 L 0 10 L 4 5 z" style="stroke-width: 1; stroke-dasharray: 1, 0;"></path></marker></defs></g><g class="edgePath" style="opacity: 1;"><path class="path" d="M373,67L391,67L405,67" marker-end="url(file:///home/tobias/github/parsers/vis/top-down/dag.html#arrowhead100)" style="fill: none;"></path><defs><marker id="arrowhead100" viewBox="0 0 10 10" refX="9" refY="5" markerUnits="strokeWidth" markerWidth="8" markerHeight="6" orient="auto"><path d="M 0 0 L 10 5 L 0 10 L 4 5 z" style="stroke-width: 1; stroke-dasharray: 1, 0;"></path></marker></defs></g><g class="edgePath" style="opacity: 1;"><path class="path" d="M437.0625,48L457,19L467,19" marker-end="url(file:///home/tobias/github/parsers/vis/top-down/dag.html#arrowhead101)" style="fill: none;"></path><defs><marker id="arrowhead101" viewBox="0 0 10 10" refX="9" refY="5" markerUnits="strokeWidth" markerWidth="8" markerHeight="6" orient="auto"><path d="M 0 0 L 10 5 L 0 10 L 4 5 z" style="stroke-width: 1; stroke-dasharray: 1, 0;"></path></marker></defs></g><g class="edgePath" style="opacity: 1;"><path class="path" d="M430.53125,120L457,43L467,36.42465753424658" marker-end="url(file:///home/tobias/github/parsers/vis/top-down/dag.html#arrowhead102)" style="fill: none;"></path><defs><marker id="arrowhead102" viewBox="0 0 10 10" refX="9" refY="5" markerUnits="strokeWidth" markerWidth="8" markerHeight="6" orient="auto"><path d="M 0 0 L 10 5 L 0 10 L 4 5 z" style="stroke-width: 1; stroke-dasharray: 1, 0;"></path></marker></defs></g><g class="edgePath" style="opacity: 1;"><path class="path" d="M443,67L457,67L475,67" marker-end="url(file:///home/tobias/github/parsers/vis/top-down/dag.html#arrowhead103)" style="fill: none;"></path><defs><marker id="arrowhead103" viewBox="0 0 10 10" refX="9" refY="5" markerUnits="strokeWidth" markerWidth="8" markerHeight="6" orient="auto"><path d="M 0 0 L 10 5 L 0 10 L 4 5 z" style="stroke-width: 1; stroke-dasharray: 1, 0;"></path></marker></defs></g><g class="edgePath" style="opacity: 1;"><path class="path" d="M512,67L530,67L549.5,67" marker-end="url(file:///home/tobias/github/parsers/vis/top-down/dag.html#arrowhead104)" style="fill: none;"></path><defs><marker id="arrowhead104" viewBox="0 0 10 10" refX="9" refY="5" markerUnits="strokeWidth" markerWidth="8" markerHeight="6" orient="auto"><path d="M 0 0 L 10 5 L 0 10 L 4 5 z" style="stroke-width: 1; stroke-dasharray: 1, 0;"></path></marker></defs></g><g class="edgePath" style="opacity: 1;"><path class="path" d="M437.0625,86L457,115L471,115" marker-end="url(file:///home/tobias/github/parsers/vis/top-down/dag.html#arrowhead105)" style="fill: none;"></path><defs><marker id="arrowhead105" viewBox="0 0 10 10" refX="9" refY="5" markerUnits="strokeWidth" markerWidth="8" markerHeight="6" orient="auto"><path d="M 0 0 L 10 5 L 0 10 L 4 5 z" style="stroke-width: 1; stroke-dasharray: 1, 0;"></path></marker></defs></g><g class="edgePath" style="opacity: 1;"><path class="path" d="M516,115L530,115L544,115" marker-end="url(file:///home/tobias/github/parsers/vis/top-down/dag.html#arrowhead106)" style="fill: none;"></path><defs><marker id="arrowhead106" viewBox="0 0 10 10" refX="9" refY="5" markerUnits="strokeWidth" markerWidth="8" markerHeight="6" orient="auto"><path d="M 0 0 L 10 5 L 0 10 L 4 5 z" style="stroke-width: 1; stroke-dasharray: 1, 0;"></path></marker></defs></g><g class="edgePath" style="opacity: 1;"><path class="path" d="M582,101.18181818181819L596,91L614,91" marker-end="url(file:///home/tobias/github/parsers/vis/top-down/dag.html#arrowhead107)" style="fill: none;"></path><defs><marker id="arrowhead107" viewBox="0 0 10 10" refX="9" refY="5" markerUnits="strokeWidth" markerWidth="8" markerHeight="6" orient="auto"><path d="M 0 0 L 10 5 L 0 10 L 4 5 z" style="stroke-width: 1; stroke-dasharray: 1, 0;"></path></marker></defs></g><g class="edgePath" style="opacity: 1;"><path class="path" d="M576.0625,168L596,139L620.46875,110" marker-end="url(file:///home/tobias/github/parsers/vis/top-down/dag.html#arrowhead108)" style="fill: none;"></path><defs><marker id="arrowhead108" viewBox="0 0 10 10" refX="9" refY="5" markerUnits="strokeWidth" markerWidth="8" markerHeight="6" orient="auto"><path d="M 0 0 L 10 5 L 0 10 L 4 5 z" style="stroke-width: 1; stroke-dasharray: 1, 0;"></path></marker></defs></g><g class="edgePath" style="opacity: 1;"><path class="path" d="M659,91L677,91L691,91" marker-end="url(file:///home/tobias/github/parsers/vis/top-down/dag.html#arrowhead109)" style="fill: none;"></path><defs><marker id="arrowhead109" viewBox="0 0 10 10" refX="9" refY="5" markerUnits="strokeWidth" markerWidth="8" markerHeight="6" orient="auto"><path d="M 0 0 L 10 5 L 0 10 L 4 5 z" style="stroke-width: 1; stroke-dasharray: 1, 0;"></path></marker></defs></g><g class="edgePath" style="opacity: 1;"><path class="path" d="M723.0625,72L743,43L753,43" marker-end="url(file:///home/tobias/github/parsers/vis/top-down/dag.html#arrowhead110)" style="fill: none;"></path><defs><marker id="arrowhead110" viewBox="0 0 10 10" refX="9" refY="5" markerUnits="strokeWidth" markerWidth="8" markerHeight="6" orient="auto"><path d="M 0 0 L 10 5 L 0 10 L 4 5 z" style="stroke-width: 1; stroke-dasharray: 1, 0;"></path></marker></defs></g><g class="edgePath" style="opacity: 1;"><path class="path" d="M714.3541666666666,192L743,67L753,60.42465753424658" marker-end="url(file:///home/tobias/github/parsers/vis/top-down/dag.html#arrowhead111)" style="fill: none;"></path><defs><marker id="arrowhead111" viewBox="0 0 10 10" refX="9" refY="5" markerUnits="strokeWidth" markerWidth="8" markerHeight="6" orient="auto"><path d="M 0 0 L 10 5 L 0 10 L 4 5 z" style="stroke-width: 1; stroke-dasharray: 1, 0;"></path></marker></defs></g><g class="edgePath" style="opacity: 1;"><path class="path" d="M729,91L743,91L761,91" marker-end="url(file:///home/tobias/github/parsers/vis/top-down/dag.html#arrowhead112)" style="fill: none;"></path><defs><marker id="arrowhead112" viewBox="0 0 10 10" refX="9" refY="5" markerUnits="strokeWidth" markerWidth="8" markerHeight="6" orient="auto"><path d="M 0 0 L 10 5 L 0 10 L 4 5 z" style="stroke-width: 1; stroke-dasharray: 1, 0;"></path></marker></defs></g><g class="edgePath" style="opacity: 1;"><path class="path" d="M798,91L816,91L835.5,91" marker-end="url(file:///home/tobias/github/parsers/vis/top-down/dag.html#arrowhead113)" style="fill: none;"></path><defs><marker id="arrowhead113" viewBox="0 0 10 10" refX="9" refY="5" markerUnits="strokeWidth" markerWidth="8" markerHeight="6" orient="auto"><path d="M 0 0 L 10 5 L 0 10 L 4 5 z" style="stroke-width: 1; stroke-dasharray: 1, 0;"></path></marker></defs></g><g class="edgePath" style="opacity: 1;"><path class="path" d="M723.0625,110L743,139L757,139" marker-end="url(file:///home/tobias/github/parsers/vis/top-down/dag.html#arrowhead114)" style="fill: none;"></path><defs><marker id="arrowhead114" viewBox="0 0 10 10" refX="9" refY="5" markerUnits="strokeWidth" markerWidth="8" markerHeight="6" orient="auto"><path d="M 0 0 L 10 5 L 0 10 L 4 5 z" style="stroke-width: 1; stroke-dasharray: 1, 0;"></path></marker></defs></g><g class="edgePath" style="opacity: 1;"><path class="path" d="M802,139L816,139L830,139" marker-end="url(file:///home/tobias/github/parsers/vis/top-down/dag.html#arrowhead115)" style="fill: none;"></path><defs><marker id="arrowhead115" viewBox="0 0 10 10" refX="9" refY="5" markerUnits="strokeWidth" markerWidth="8" markerHeight="6" orient="auto"><path d="M 0 0 L 10 5 L 0 10 L 4 5 z" style="stroke-width: 1; stroke-dasharray: 1, 0;"></path></marker></defs></g><g class="edgePath" style="opacity: 1;"><path class="path" d="M868,125.18181818181819L882,115L900,115" marker-end="url(file:///home/tobias/github/parsers/vis/top-down/dag.html#arrowhead116)" style="fill: none;"></path><defs><marker id="arrowhead116" viewBox="0 0 10 10" refX="9" refY="5" markerUnits="strokeWidth" markerWidth="8" markerHeight="6" orient="auto"><path d="M 0 0 L 10 5 L 0 10 L 4 5 z" style="stroke-width: 1; stroke-dasharray: 1, 0;"></path></marker></defs></g><g class="edgePath" style="opacity: 1;"><path class="path" d="M857.7083333333334,192L882,139L900,128.33333333333334" marker-end="url(file:///home/tobias/github/parsers/vis/top-down/dag.html#arrowhead117)" style="fill: none;"></path><defs><marker id="arrowhead117" viewBox="0 0 10 10" refX="9" refY="5" markerUnits="strokeWidth" markerWidth="8" markerHeight="6" orient="auto"><path d="M 0 0 L 10 5 L 0 10 L 4 5 z" style="stroke-width: 1; stroke-dasharray: 1, 0;"></path></marker></defs></g><g class="edgePath" style="opacity: 1;"><path class="path" d="M868,152.8181818181818L882,163L900,163" marker-end="url(file:///home/tobias/github/parsers/vis/top-down/dag.html#arrowhead118)" style="fill: none;"></path><defs><marker id="arrowhead118" viewBox="0 0 10 10" refX="9" refY="5" markerUnits="strokeWidth" markerWidth="8" markerHeight="6" orient="auto"><path d="M 0 0 L 10 5 L 0 10 L 4 5 z" style="stroke-width: 1; stroke-dasharray: 1, 0;"></path></marker></defs></g><g class="edgePath" style="opacity: 1;"><path class="path" d="M576.0625,134L596,163L614,163" marker-end="url(file:///home/tobias/github/parsers/vis/top-down/dag.html#arrowhead119)" style="fill: none;"></path><defs><marker id="arrowhead119" viewBox="0 0 10 10" refX="9" refY="5" markerUnits="strokeWidth" markerWidth="8" markerHeight="6" orient="auto"><path d="M 0 0 L 10 5 L 0 10 L 4 5 z" style="stroke-width: 1; stroke-dasharray: 1, 0;"></path></marker></defs></g><g class="edgePath" style="opacity: 1;"><path class="path" d="M285.7083333333333,86L310,139L324,139" marker-end="url(file:///home/tobias/github/parsers/vis/top-down/dag.html#arrowhead120)" style="fill: none;"></path><defs><marker id="arrowhead120" viewBox="0 0 10 10" refX="9" refY="5" markerUnits="strokeWidth" markerWidth="8" markerHeight="6" orient="auto"><path d="M 0 0 L 10 5 L 0 10 L 4 5 z" style="stroke-width: 1; stroke-dasharray: 1, 0;"></path></marker></defs></g><g class="edgePath" style="opacity: 1;"><path class="path" d="M377,139L391,139L401,139" marker-end="url(file:///home/tobias/github/parsers/vis/top-down/dag.html#arrowhead121)" style="fill: none;"></path><defs><marker id="arrowhead121" viewBox="0 0 10 10" refX="9" refY="5" markerUnits="strokeWidth" markerWidth="8" markerHeight="6" orient="auto"><path d="M 0 0 L 10 5 L 0 10 L 4 5 z" style="stroke-width: 1; stroke-dasharray: 1, 0;"></path></marker></defs></g><g class="edgePath" style="opacity: 1;"><path class="path" d="M437.0625,158L457,187L467,187" marker-end="url(file:///home/tobias/github/parsers/vis/top-down/dag.html#arrowhead122)" style="fill: none;"></path><defs><marker id="arrowhead122" viewBox="0 0 10 10" refX="9" refY="5" markerUnits="strokeWidth" markerWidth="8" markerHeight="6" orient="auto"><path d="M 0 0 L 10 5 L 0 10 L 4 5 z" style="stroke-width: 1; stroke-dasharray: 1, 0;"></path></marker></defs></g><g class="edgePath" style="opacity: 1;"><path class="path" d="M520,187L530,187L540,187" marker-end="url(file:///home/tobias/github/parsers/vis/top-down/dag.html#arrowhead123)" style="fill: none;"></path><defs><marker id="arrowhead123" viewBox="0 0 10 10" refX="9" refY="5" markerUnits="strokeWidth" markerWidth="8" markerHeight="6" orient="auto"><path d="M 0 0 L 10 5 L 0 10 L 4 5 z" style="stroke-width: 1; stroke-dasharray: 1, 0;"></path></marker></defs></g><g class="edgePath" style="opacity: 1;"><path class="path" d="M586,203.72727272727272L596,211L610,211" marker-end="url(file:///home/tobias/github/parsers/vis/top-down/dag.html#arrowhead124)" style="fill: none;"></path><defs><marker id="arrowhead124" viewBox="0 0 10 10" refX="9" refY="5" markerUnits="strokeWidth" markerWidth="8" markerHeight="6" orient="auto"><path d="M 0 0 L 10 5 L 0 10 L 4 5 z" style="stroke-width: 1; stroke-dasharray: 1, 0;"></path></marker></defs></g><g class="edgePath" style="opacity: 1;"><path class="path" d="M663,211L677,211L687,211" marker-end="url(file:///home/tobias/github/parsers/vis/top-down/dag.html#arrowhead125)" style="fill: none;"></path><defs><marker id="arrowhead125" viewBox="0 0 10 10" refX="9" refY="5" markerUnits="strokeWidth" markerWidth="8" markerHeight="6" orient="auto"><path d="M 0 0 L 10 5 L 0 10 L 4 5 z" style="stroke-width: 1; stroke-dasharray: 1, 0;"></path></marker></defs></g><g class="edgePath" style="opacity: 1;"><path class="path" d="M733,211L743,211L753,211" marker-end="url(file:///home/tobias/github/parsers/vis/top-down/dag.html#arrowhead126)" style="fill: none;"></path><defs><marker id="arrowhead126" viewBox="0 0 10 10" refX="9" refY="5" markerUnits="strokeWidth" markerWidth="8" markerHeight="6" orient="auto"><path d="M 0 0 L 10 5 L 0 10 L 4 5 z" style="stroke-width: 1; stroke-dasharray: 1, 0;"></path></marker></defs></g><g class="edgePath" style="opacity: 1;"><path class="path" d="M806,211L816,211L826,211" marker-end="url(file:///home/tobias/github/parsers/vis/top-down/dag.html#arrowhead127)" style="fill: none;"></path><defs><marker id="arrowhead127" viewBox="0 0 10 10" refX="9" refY="5" markerUnits="strokeWidth" markerWidth="8" markerHeight="6" orient="auto"><path d="M 0 0 L 10 5 L 0 10 L 4 5 z" style="stroke-width: 1; stroke-dasharray: 1, 0;"></path></marker></defs></g><g class="edgePath" style="opacity: 1;"><path class="path" d="M872,211L882,211L896,211" marker-end="url(file:///home/tobias/github/parsers/vis/top-down/dag.html#arrowhead128)" style="fill: none;"></path><defs><marker id="arrowhead128" viewBox="0 0 10 10" refX="9" refY="5" markerUnits="strokeWidth" markerWidth="8" markerHeight="6" orient="auto"><path d="M 0 0 L 10 5 L 0 10 L 4 5 z" style="stroke-width: 1; stroke-dasharray: 1, 0;"></path></marker></defs></g><g class="edgePath" style="opacity: 1;"><path class="path" d="M862.0625,230L882,259L892,259" marker-end="url(file:///home/tobias/github/parsers/vis/top-down/dag.html#arrowhead129)" style="fill: none;"></path><defs><marker id="arrowhead129" viewBox="0 0 10 10" refX="9" refY="5" markerUnits="strokeWidth" markerWidth="8" markerHeight="6" orient="auto"><path d="M 0 0 L 10 5 L 0 10 L 4 5 z" style="stroke-width: 1; stroke-dasharray: 1, 0;"></path></marker></defs></g><g class="edgePath" style="opacity: 1;"><path class="path" d="M571.7083333333334,206L596,259L606,259" marker-end="url(file:///home/tobias/github/parsers/vis/top-down/dag.html#arrowhead130)" style="fill: none;"></path><defs><marker id="arrowhead130" viewBox="0 0 10 10" refX="9" refY="5" markerUnits="strokeWidth" markerWidth="8" markerHeight="6" orient="auto"><path d="M 0 0 L 10 5 L 0 10 L 4 5 z" style="stroke-width: 1; stroke-dasharray: 1, 0;"></path></marker></defs></g><g class="edgePath" style="opacity: 1;"><path class="path" d="M161,115L171,115L189,115" marker-end="url(file:///home/tobias/github/parsers/vis/top-down/dag.html#arrowhead131)" style="fill: none;"></path><defs><marker id="arrowhead131" viewBox="0 0 10 10" refX="9" refY="5" markerUnits="strokeWidth" markerWidth="8" markerHeight="6" orient="auto"><path d="M 0 0 L 10 5 L 0 10 L 4 5 z" style="stroke-width: 1; stroke-dasharray: 1, 0;"></path></marker></defs></g><g class="edgePath" style="opacity: 1;"><path class="path" d="M153.47916666666666,134L171,163L185,163" marker-end="url(file:///home/tobias/github/parsers/vis/top-down/dag.html#arrowhead132)" style="fill: none;"></path><defs><marker id="arrowhead132" viewBox="0 0 10 10" refX="9" refY="5" markerUnits="strokeWidth" markerWidth="8" markerHeight="6" orient="auto"><path d="M 0 0 L 10 5 L 0 10 L 4 5 z" style="stroke-width: 1; stroke-dasharray: 1, 0;"></path></marker></defs></g><g class="edgePath" style="opacity: 1;"><path class="path" d="M38,154.72413793103448L48,163L58,163" marker-end="url(file:///home/tobias/github/parsers/vis/top-down/dag.html#arrowhead133)" style="fill: none;"></path><defs><marker id="arrowhead133" viewBox="0 0 10 10" refX="9" refY="5" markerUnits="strokeWidth" markerWidth="8" markerHeight="6" orient="auto"><path d="M 0 0 L 10 5 L 0 10 L 4 5 z" style="stroke-width: 1; stroke-dasharray: 1, 0;"></path></marker></defs></g></g><g class="edgeLabels"><g class="edgeLabel" style="opacity: 1;" transform=""><g transform="translate(0,0)" class="label"><text><tspan xml:space="preserve" dy="1em" x="1"></tspan></text></g></g><g class="edgeLabel" style="opacity: 1;" transform=""><g transform="translate(0,0)" class="label"><text><tspan xml:space="preserve" dy="1em" x="1"></tspan></text></g></g><g class="edgeLabel" style="opacity: 1;" transform=""><g transform="translate(0,0)" class="label"><text><tspan xml:space="preserve" dy="1em" x="1"></tspan></text></g></g><g class="edgeLabel" style="opacity: 1;" transform=""><g transform="translate(0,0)" class="label"><text><tspan xml:space="preserve" dy="1em" x="1"></tspan></text></g></g><g class="edgeLabel" style="opacity: 1;" transform=""><g transform="translate(0,0)" class="label"><text><tspan xml:space="preserve" dy="1em" x="1"></tspan></text></g></g><g class="edgeLabel" style="opacity: 1;" transform=""><g transform="translate(0,0)" class="label"><text><tspan xml:space="preserve" dy="1em" x="1"></tspan></text></g></g><g class="edgeLabel" style="opacity: 1;" transform=""><g transform="translate(0,0)" class="label"><text><tspan xml:space="preserve" dy="1em" x="1"></tspan></text></g></g><g class="edgeLabel" style="opacity: 1;" transform=""><g transform="translate(0,0)" class="label"><text><tspan xml:space="preserve" dy="1em" x="1"></tspan></text></g></g><g class="edgeLabel" style="opacity: 1;" transform=""><g transform="translate(0,0)" class="label"><text><tspan xml:space="preserve" dy="1em" x="1"></tspan></text></g></g><g class="edgeLabel" style="opacity: 1;" transform=""><g transform="translate(0,0)" class="label"><text><tspan xml:space="preserve" dy="1em" x="1"></tspan></text></g></g><g class="edgeLabel" style="opacity: 1;" transform=""><g transform="translate(0,0)" class="label"><text><tspan xml:space="preserve" dy="1em" x="1"></tspan></text></g></g><g class="edgeLabel" style="opacity: 1;" transform=""><g transform="translate(0,0)" class="label"><text><tspan xml:space="preserve" dy="1em" x="1"></tspan></text></g></g><g class="edgeLabel" style="opacity: 1;" transform=""><g transform="translate(0,0)" class="label"><text><tspan xml:space="preserve" dy="1em" x="1"></tspan></text></g></g><g class="edgeLabel" style="opacity: 1;" transform=""><g transform="translate(0,0)" class="label"><text><tspan xml:space="preserve" dy="1em" x="1"></tspan></text></g></g><g class="edgeLabel" style="opacity: 1;" transform=""><g transform="translate(0,0)" class="label"><text><tspan xml:space="preserve" dy="1em" x="1"></tspan></text></g></g><g class="edgeLabel" style="opacity: 1;" transform=""><g transform="translate(0,0)" class="label"><text><tspan xml:space="preserve" dy="1em" x="1"></tspan></text></g></g><g class="edgeLabel" style="opacity: 1;" transform=""><g transform="translate(0,0)" class="label"><text><tspan xml:space="preserve" dy="1em" x="1"></tspan></text></g></g><g class="edgeLabel" style="opacity: 1;" transform=""><g transform="translate(0,0)" class="label"><text><tspan xml:space="preserve" dy="1em" x="1"></tspan></text></g></g><g class="edgeLabel" style="opacity: 1;" transform=""><g transform="translate(0,0)" class="label"><text><tspan xml:space="preserve" dy="1em" x="1"></tspan></text></g></g><g class="edgeLabel" style="opacity: 1;" transform=""><g transform="translate(0,0)" class="label"><text><tspan xml:space="preserve" dy="1em" x="1"></tspan></text></g></g><g class="edgeLabel" style="opacity: 1;" transform=""><g transform="translate(0,0)" class="label"><text><tspan xml:space="preserve" dy="1em" x="1"></tspan></text></g></g><g class="edgeLabel" style="opacity: 1;" transform=""><g transform="translate(0,0)" class="label"><text><tspan xml:space="preserve" dy="1em" x="1"></tspan></text></g></g><g class="edgeLabel" style="opacity: 1;" transform=""><g transform="translate(0,0)" class="label"><text><tspan xml:space="preserve" dy="1em" x="1"></tspan></text></g></g><g class="edgeLabel" style="opacity: 1;" transform=""><g transform="translate(0,0)" class="label"><text><tspan xml:space="preserve" dy="1em" x="1"></tspan></text></g></g><g class="edgeLabel" style="opacity: 1;" transform=""><g transform="translate(0,0)" class="label"><text><tspan xml:space="preserve" dy="1em" x="1"></tspan></text></g></g><g class="edgeLabel" style="opacity: 1;" transform=""><g transform="translate(0,0)" class="label"><text><tspan xml:space="preserve" dy="1em" x="1"></tspan></text></g></g><g class="edgeLabel" style="opacity: 1;" transform=""><g transform="translate(0,0)" class="label"><text><tspan xml:space="preserve" dy="1em" x="1"></tspan></text></g></g><g class="edgeLabel" style="opacity: 1;" transform=""><g transform="translate(0,0)" class="label"><text><tspan xml:space="preserve" dy="1em" x="1"></tspan></text></g></g><g class="edgeLabel" style="opacity: 1;" transform=""><g transform="translate(0,0)" class="label"><text><tspan xml:space="preserve" dy="1em" x="1"></tspan></text></g></g><g class="edgeLabel" style="opacity: 1;" transform=""><g transform="translate(0,0)" class="label"><text><tspan xml:space="preserve" dy="1em" x="1"></tspan></text></g></g><g class="edgeLabel" style="opacity: 1;" transform=""><g transform="translate(0,0)" class="label"><text><tspan xml:space="preserve" dy="1em" x="1"></tspan></text></g></g><g class="edgeLabel" style="opacity: 1;" transform=""><g transform="translate(0,0)" class="label"><text><tspan xml:space="preserve" dy="1em" x="1"></tspan></text></g></g><g class="edgeLabel" style="opacity: 1;" transform=""><g transform="translate(0,0)" class="label"><text><tspan xml:space="preserve" dy="1em" x="1"></tspan></text></g></g><g class="edgeLabel" style="opacity: 1;" transform=""><g transform="translate(0,0)" class="label"><text><tspan xml:space="preserve" dy="1em" x="1"></tspan></text></g></g><g class="edgeLabel" style="opacity: 1;" transform=""><g transform="translate(0,0)" class="label"><text><tspan xml:space="preserve" dy="1em" x="1"></tspan></text></g></g><g class="edgeLabel" style="opacity: 1;" transform=""><g transform="translate(0,0)" class="label"><text><tspan xml:space="preserve" dy="1em" x="1"></tspan></text></g></g><g class="edgeLabel" style="opacity: 1;" transform=""><g transform="translate(0,0)" class="label"><text><tspan xml:space="preserve" dy="1em" x="1"></tspan></text></g></g><g class="edgeLabel" style="opacity: 1;" transform=""><g transform="translate(0,0)" class="label"><text><tspan xml:space="preserve" dy="1em" x="1"></tspan></text></g></g><g class="edgeLabel" style="opacity: 1;" transform=""><g transform="translate(0,0)" class="label"><text><tspan xml:space="preserve" dy="1em" x="1"></tspan></text></g></g><g class="edgeLabel" style="opacity: 1;" transform=""><g transform="translate(0,0)" class="label"><text><tspan xml:space="preserve" dy="1em" x="1"></tspan></text></g></g></g><g class="nodes"><g class="node predict-goal-path" style="opacity: 1;" transform="translate(19,139)"><rect rx="5" ry="5" x="-19" y="-19" width="38" height="38"></rect><g class="label" transform="translate(0,0)"><g transform="translate(-9,-9)"><text><tspan xml:space="preserve" dy="1em" x="1">0:S</tspan></text></g></g></g><g class="node predict-goal-path" style="opacity: 1;" transform="translate(80.5,115)"><rect rx="5" ry="5" x="-22.5" y="-19" width="45" height="38"></rect><g class="label" transform="translate(0,0)"><g transform="translate(-12.5,-9)"><text><tspan xml:space="preserve" dy="1em" x="1">0:aB</tspan></text></g></g></g><g class="node match-goal-path" style="opacity: 1;" transform="translate(142,115)"><rect rx="5" ry="5" x="-19" y="-19" width="38" height="38"></rect><g class="label" transform="translate(0,0)"><g transform="translate(-9,-9)"><text><tspan xml:space="preserve" dy="1em" x="1">1:B</tspan></text></g></g></g><g class="node predict-goal-path" style="opacity: 1;" transform="translate(207.5,67)"><rect rx="5" ry="5" x="-26.5" y="-19" width="53" height="38"></rect><g class="label" transform="translate(0,0)"><g transform="translate(-16.5,-9)"><text><tspan xml:space="preserve" dy="1em" x="1">1:aBB</tspan></text></g></g></g><g class="node match-goal-path" style="opacity: 1;" transform="translate(277,67)"><rect rx="5" ry="5" x="-23" y="-19" width="46" height="38"></rect><g class="label" transform="translate(0,0)"><g transform="translate(-13,-9)"><text><tspan xml:space="preserve" dy="1em" x="1">2:BB</tspan></text></g></g></g><g class="node predict-non-goal-path" style="opacity: 1;" transform="translate(350.5,19)"><rect rx="5" ry="5" x="-30.5" y="-19" width="61" height="38"></rect><g class="label" transform="translate(0,0)"><g transform="translate(-20.5,-9)"><text><tspan xml:space="preserve" dy="1em" x="1">2:aBBB</tspan></text></g></g></g><g class="node predict-goal-path" style="opacity: 1;" transform="translate(350.5,67)"><rect rx="5" ry="5" x="-22.5" y="-19" width="45" height="38"></rect><g class="label" transform="translate(0,0)"><g transform="translate(-12.5,-9)"><text><tspan xml:space="preserve" dy="1em" x="1">2:bB</tspan></text></g></g></g><g class="node match-goal-path" style="opacity: 1;" transform="translate(424,67)"><rect rx="5" ry="5" x="-19" y="-19" width="38" height="38"></rect><g class="label" transform="translate(0,0)"><g transform="translate(-9,-9)"><text><tspan xml:space="preserve" dy="1em" x="1">3:B</tspan></text></g></g></g><g class="node predict-non-goal-path" style="opacity: 1;" transform="translate(493.5,19)"><rect rx="5" ry="5" x="-26.5" y="-19" width="53" height="38"></rect><g class="label" transform="translate(0,0)"><g transform="translate(-16.5,-9)"><text><tspan xml:space="preserve" dy="1em" x="1">3:aBB</tspan></text></g></g></g><g class="node predict-non-goal-path" style="opacity: 1;" transform="translate(493.5,67)"><rect rx="5" ry="5" x="-18.5" y="-19" width="37" height="38"></rect><g class="label" transform="translate(0,0)"><g transform="translate(-8.5,-9)"><text><tspan xml:space="preserve" dy="1em" x="1">3:b</tspan></text></g></g></g><g class="node match-non-goal-path" style="opacity: 1;" transform="translate(563,67)"><rect rx="5" ry="5" x="-13.5" y="-19" width="27" height="38"></rect><g class="label" transform="translate(0,0)"><g transform="translate(-3.5,-9)"><text><tspan xml:space="preserve" dy="1em" x="1">4</tspan></text></g></g></g><g class="node predict-goal-path" style="opacity: 1;" transform="translate(493.5,115)"><rect rx="5" ry="5" x="-22.5" y="-19" width="45" height="38"></rect><g class="label" transform="translate(0,0)"><g transform="translate(-12.5,-9)"><text><tspan xml:space="preserve" dy="1em" x="1">3:bS</tspan></text></g></g></g><g class="node match-goal-path" style="opacity: 1;" transform="translate(563,115)"><rect rx="5" ry="5" x="-19" y="-19" width="38" height="38"></rect><g class="label" transform="translate(0,0)"><g transform="translate(-9,-9)"><text><tspan xml:space="preserve" dy="1em" x="1">4:S</tspan></text></g></g></g><g class="node predict-goal-path" style="opacity: 1;" transform="translate(636.5,91)"><rect rx="5" ry="5" x="-22.5" y="-19" width="45" height="38"></rect><g class="label" transform="translate(0,0)"><g transform="translate(-12.5,-9)"><text><tspan xml:space="preserve" dy="1em" x="1">4:aB</tspan></text></g></g></g><g class="node match-goal-path" style="opacity: 1;" transform="translate(710,91)"><rect rx="5" ry="5" x="-19" y="-19" width="38" height="38"></rect><g class="label" transform="translate(0,0)"><g transform="translate(-9,-9)"><text><tspan xml:space="preserve" dy="1em" x="1">5:B</tspan></text></g></g></g><g class="node predict-non-goal-path" style="opacity: 1;" transform="translate(779.5,43)"><rect rx="5" ry="5" x="-26.5" y="-19" width="53" height="38"></rect><g class="label" transform="translate(0,0)"><g transform="translate(-16.5,-9)"><text><tspan xml:space="preserve" dy="1em" x="1">5:aBB</tspan></text></g></g></g><g class="node predict-goal-path" style="opacity: 1;" transform="translate(779.5,91)"><rect rx="5" ry="5" x="-18.5" y="-19" width="37" height="38"></rect><g class="label" transform="translate(0,0)"><g transform="translate(-8.5,-9)"><text><tspan xml:space="preserve" dy="1em" x="1">5:b</tspan></text></g></g></g><g class="node match-goal-path" style="opacity: 1;" transform="translate(849,91)"><rect rx="5" ry="5" x="-13.5" y="-19" width="27" height="38"></rect><g class="label" transform="translate(0,0)"><g transform="translate(-3.5,-9)"><text><tspan xml:space="preserve" dy="1em" x="1">6</tspan></text></g></g></g><g class="node predict-non-goal-path" style="opacity: 1;" transform="translate(779.5,139)"><rect rx="5" ry="5" x="-22.5" y="-19" width="45" height="38"></rect><g class="label" transform="translate(0,0)"><g transform="translate(-12.5,-9)"><text><tspan xml:space="preserve" dy="1em" x="1">5:bS</tspan></text></g></g></g><g class="node match-non-goal-path" style="opacity: 1;" transform="translate(849,139)"><rect rx="5" ry="5" x="-19" y="-19" width="38" height="38"></rect><g class="label" transform="translate(0,0)"><g transform="translate(-9,-9)"><text><tspan xml:space="preserve" dy="1em" x="1">6:S</tspan></text></g></g></g><g class="node predict-non-goal-path" style="opacity: 1;" transform="translate(922.5,115)"><rect rx="5" ry="5" x="-22.5" y="-19" width="45" height="38"></rect><g class="label" transform="translate(0,0)"><g transform="translate(-12.5,-9)"><text><tspan xml:space="preserve" dy="1em" x="1">6:aB</tspan></text></g></g></g><g class="node predict-non-goal-path" style="opacity: 1;" transform="translate(922.5,163)"><rect rx="5" ry="5" x="-22.5" y="-19" width="45" height="38"></rect><g class="label" transform="translate(0,0)"><g transform="translate(-12.5,-9)"><text><tspan xml:space="preserve" dy="1em" x="1">6:bA</tspan></text></g></g></g><g class="node predict-non-goal-path" style="opacity: 1;" transform="translate(636.5,163)"><rect rx="5" ry="5" x="-22.5" y="-19" width="45" height="38"></rect><g class="label" transform="translate(0,0)"><g transform="translate(-12.5,-9)"><text><tspan xml:space="preserve" dy="1em" x="1">4:bA</tspan></text></g></g></g><g class="node predict-goal-path" style="opacity: 1;" transform="translate(350.5,139)"><rect rx="5" ry="5" x="-26.5" y="-19" width="53" height="38"></rect><g class="label" transform="translate(0,0)"><g transform="translate(-16.5,-9)"><text><tspan xml:space="preserve" dy="1em" x="1">2:bSB</tspan></text></g></g></g><g class="node match-goal-path" style="opacity: 1;" transform="translate(424,139)"><rect rx="5" ry="5" x="-23" y="-19" width="46" height="38"></rect><g class="label" transform="translate(0,0)"><g transform="translate(-13,-9)"><text><tspan xml:space="preserve" dy="1em" x="1">3:SB</tspan></text></g></g></g><g class="node predict-goal-path" style="opacity: 1;" transform="translate(493.5,187)"><rect rx="5" ry="5" x="-26.5" y="-19" width="53" height="38"></rect><g class="label" transform="translate(0,0)"><g transform="translate(-16.5,-9)"><text><tspan xml:space="preserve" dy="1em" x="1">3:bAB</tspan></text></g></g></g><g class="node match-goal-path" style="opacity: 1;" transform="translate(563,187)"><rect rx="5" ry="5" x="-23" y="-19" width="46" height="38"></rect><g class="label" transform="translate(0,0)"><g transform="translate(-13,-9)"><text><tspan xml:space="preserve" dy="1em" x="1">4:AB</tspan></text></g></g></g><g class="node predict-non-goal-path" style="opacity: 1;" transform="translate(636.5,211)"><rect rx="5" ry="5" x="-26.5" y="-19" width="53" height="38"></rect><g class="label" transform="translate(0,0)"><g transform="translate(-16.5,-9)"><text><tspan xml:space="preserve" dy="1em" x="1">4:aSB</tspan></text></g></g></g><g class="node match-non-goal-path" style="opacity: 1;" transform="translate(710,211)"><rect rx="5" ry="5" x="-23" y="-19" width="46" height="38"></rect><g class="label" transform="translate(0,0)"><g transform="translate(-13,-9)"><text><tspan xml:space="preserve" dy="1em" x="1">5:SB</tspan></text></g></g></g><g class="node predict-non-goal-path" style="opacity: 1;" transform="translate(779.5,211)"><rect rx="5" ry="5" x="-26.5" y="-19" width="53" height="38"></rect><g class="label" transform="translate(0,0)"><g transform="translate(-16.5,-9)"><text><tspan xml:space="preserve" dy="1em" x="1">5:bAB</tspan></text></g></g></g><g class="node match-non-goal-path" style="opacity: 1;" transform="translate(849,211)"><rect rx="5" ry="5" x="-23" y="-19" width="46" height="38"></rect><g class="label" transform="translate(0,0)"><g transform="translate(-13,-9)"><text><tspan xml:space="preserve" dy="1em" x="1">6:AB</tspan></text></g></g></g><g class="node predict-non-goal-path" style="opacity: 1;" transform="translate(922.5,211)"><rect rx="5" ry="5" x="-26.5" y="-19" width="53" height="38"></rect><g class="label" transform="translate(0,0)"><g transform="translate(-16.5,-9)"><text><tspan xml:space="preserve" dy="1em" x="1">6:aSB</tspan></text></g></g></g><g class="node predict-non-goal-path" style="opacity: 1;" transform="translate(922.5,259)"><rect rx="5" ry="5" x="-30.5" y="-19" width="61" height="38"></rect><g class="label" transform="translate(0,0)"><g transform="translate(-20.5,-9)"><text><tspan xml:space="preserve" dy="1em" x="1">6:bAAB</tspan></text></g></g></g><g class="node predict-non-goal-path" style="opacity: 1;" transform="translate(636.5,259)"><rect rx="5" ry="5" x="-30.5" y="-19" width="61" height="38"></rect><g class="label" transform="translate(0,0)"><g transform="translate(-20.5,-9)"><text><tspan xml:space="preserve" dy="1em" x="1">4:bAAB</tspan></text></g></g></g><g class="node predict-non-goal-path" style="opacity: 1;" transform="translate(207.5,115)"><rect rx="5" ry="5" x="-18.5" y="-19" width="37" height="38"></rect><g class="label" transform="translate(0,0)"><g transform="translate(-8.5,-9)"><text><tspan xml:space="preserve" dy="1em" x="1">1:b</tspan></text></g></g></g><g class="node predict-non-goal-path" style="opacity: 1;" transform="translate(207.5,163)"><rect rx="5" ry="5" x="-22.5" y="-19" width="45" height="38"></rect><g class="label" transform="translate(0,0)"><g transform="translate(-12.5,-9)"><text><tspan xml:space="preserve" dy="1em" x="1">1:bS</tspan></text></g></g></g><g class="node predict-non-goal-path" style="opacity: 1;" transform="translate(80.5,163)"><rect rx="5" ry="5" x="-22.5" y="-19" width="45" height="38"></rect><g class="label" transform="translate(0,0)"><g transform="translate(-12.5,-9)"><text><tspan xml:space="preserve" dy="1em" x="1">0:bA</tspan></text></g></g></g></g></g></g></svg>
    